<mxfile host="app.diagrams.net" modified="2023-04-23T22:31:54.237Z" agent="Mozilla/5.0 (Windows NT 10.0; Win64; x64; rv:109.0) Gecko/20100101 Firefox/112.0" etag="ZD8ObzAopXgsyic3ZrL_" version="21.2.1" type="device">
  <diagram name="Page-1" id="Mig-sMreI63sIYIa9TXF">
    <mxGraphModel dx="629" dy="1095" grid="1" gridSize="10" guides="1" tooltips="1" connect="1" arrows="1" fold="1" page="1" pageScale="1" pageWidth="827" pageHeight="1169" math="0" shadow="0">
      <root>
        <mxCell id="0" />
        <mxCell id="1" parent="0" />
        <mxCell id="eh8_WTJjOYL_qaqL26GH-24" value="Listener" style="swimlane;fontStyle=0;childLayout=stackLayout;horizontal=1;startSize=26;fillColor=none;horizontalStack=0;resizeParent=1;resizeParentMax=0;resizeLast=0;collapsible=1;marginBottom=0;whiteSpace=wrap;html=1;" vertex="1" parent="1">
          <mxGeometry x="120" y="668" width="140" height="52" as="geometry" />
        </mxCell>
        <mxCell id="eh8_WTJjOYL_qaqL26GH-25" value="listen(send_event)" style="text;strokeColor=none;fillColor=none;align=left;verticalAlign=top;spacingLeft=4;spacingRight=4;overflow=hidden;rotatable=0;points=[[0,0.5],[1,0.5]];portConstraint=eastwest;whiteSpace=wrap;html=1;" vertex="1" parent="eh8_WTJjOYL_qaqL26GH-24">
          <mxGeometry y="26" width="140" height="26" as="geometry" />
        </mxCell>
        <mxCell id="eh8_WTJjOYL_qaqL26GH-28" value="Distributor" style="swimlane;fontStyle=0;childLayout=stackLayout;horizontal=1;startSize=26;fillColor=none;horizontalStack=0;resizeParent=1;resizeParentMax=0;resizeLast=0;collapsible=1;marginBottom=0;whiteSpace=wrap;html=1;" vertex="1" parent="1">
          <mxGeometry x="320" y="510" width="180" height="104" as="geometry" />
        </mxCell>
        <mxCell id="eh8_WTJjOYL_qaqL26GH-29" value="message_to_observers()" style="text;strokeColor=none;fillColor=none;align=left;verticalAlign=top;spacingLeft=4;spacingRight=4;overflow=hidden;rotatable=0;points=[[0,0.5],[1,0.5]];portConstraint=eastwest;whiteSpace=wrap;html=1;" vertex="1" parent="eh8_WTJjOYL_qaqL26GH-28">
          <mxGeometry y="26" width="180" height="26" as="geometry" />
        </mxCell>
        <mxCell id="eh8_WTJjOYL_qaqL26GH-30" value="attach_to_event(observer)" style="text;strokeColor=none;fillColor=none;align=left;verticalAlign=top;spacingLeft=4;spacingRight=4;overflow=hidden;rotatable=0;points=[[0,0.5],[1,0.5]];portConstraint=eastwest;whiteSpace=wrap;html=1;" vertex="1" parent="eh8_WTJjOYL_qaqL26GH-28">
          <mxGeometry y="52" width="180" height="26" as="geometry" />
        </mxCell>
        <mxCell id="eh8_WTJjOYL_qaqL26GH-31" value="detach_from_event(observer)" style="text;strokeColor=none;fillColor=none;align=left;verticalAlign=top;spacingLeft=4;spacingRight=4;overflow=hidden;rotatable=0;points=[[0,0.5],[1,0.5]];portConstraint=eastwest;whiteSpace=wrap;html=1;" vertex="1" parent="eh8_WTJjOYL_qaqL26GH-28">
          <mxGeometry y="78" width="180" height="26" as="geometry" />
        </mxCell>
        <mxCell id="eh8_WTJjOYL_qaqL26GH-36" style="edgeStyle=orthogonalEdgeStyle;rounded=0;orthogonalLoop=1;jettySize=auto;html=1;endArrow=block;endFill=0;" edge="1" parent="1" source="eh8_WTJjOYL_qaqL26GH-32" target="eh8_WTJjOYL_qaqL26GH-28">
          <mxGeometry relative="1" as="geometry" />
        </mxCell>
        <mxCell id="eh8_WTJjOYL_qaqL26GH-32" value="Event" style="swimlane;fontStyle=0;childLayout=stackLayout;horizontal=1;startSize=26;fillColor=none;horizontalStack=0;resizeParent=1;resizeParentMax=0;resizeLast=0;collapsible=1;marginBottom=0;whiteSpace=wrap;html=1;" vertex="1" parent="1">
          <mxGeometry x="340" y="640" width="140" height="52" as="geometry" />
        </mxCell>
        <mxCell id="eh8_WTJjOYL_qaqL26GH-33" value="send()" style="text;strokeColor=none;fillColor=none;align=left;verticalAlign=top;spacingLeft=4;spacingRight=4;overflow=hidden;rotatable=0;points=[[0,0.5],[1,0.5]];portConstraint=eastwest;whiteSpace=wrap;html=1;" vertex="1" parent="eh8_WTJjOYL_qaqL26GH-32">
          <mxGeometry y="26" width="140" height="26" as="geometry" />
        </mxCell>
        <mxCell id="eh8_WTJjOYL_qaqL26GH-45" style="edgeStyle=orthogonalEdgeStyle;rounded=0;orthogonalLoop=1;jettySize=auto;html=1;exitX=0.5;exitY=0;exitDx=0;exitDy=0;" edge="1" parent="1" source="eh8_WTJjOYL_qaqL26GH-37" target="eh8_WTJjOYL_qaqL26GH-32">
          <mxGeometry relative="1" as="geometry" />
        </mxCell>
        <mxCell id="eh8_WTJjOYL_qaqL26GH-37" value="Sender" style="swimlane;fontStyle=0;childLayout=stackLayout;horizontal=1;startSize=26;fillColor=none;horizontalStack=0;resizeParent=1;resizeParentMax=0;resizeLast=0;collapsible=1;marginBottom=0;whiteSpace=wrap;html=1;" vertex="1" parent="1">
          <mxGeometry x="320" y="720" width="180" height="78" as="geometry" />
        </mxCell>
        <mxCell id="eh8_WTJjOYL_qaqL26GH-38" value="set_event(category, name, info)" style="text;strokeColor=none;fillColor=none;align=left;verticalAlign=top;spacingLeft=4;spacingRight=4;overflow=hidden;rotatable=0;points=[[0,0.5],[1,0.5]];portConstraint=eastwest;whiteSpace=wrap;html=1;" vertex="1" parent="eh8_WTJjOYL_qaqL26GH-37">
          <mxGeometry y="26" width="180" height="26" as="geometry" />
        </mxCell>
        <mxCell id="eh8_WTJjOYL_qaqL26GH-39" value="send(category, name, info)" style="text;strokeColor=none;fillColor=none;align=left;verticalAlign=top;spacingLeft=4;spacingRight=4;overflow=hidden;rotatable=0;points=[[0,0.5],[1,0.5]];portConstraint=eastwest;whiteSpace=wrap;html=1;" vertex="1" parent="eh8_WTJjOYL_qaqL26GH-37">
          <mxGeometry y="52" width="180" height="26" as="geometry" />
        </mxCell>
        <mxCell id="eh8_WTJjOYL_qaqL26GH-46" style="edgeStyle=orthogonalEdgeStyle;rounded=0;orthogonalLoop=1;jettySize=auto;html=1;endArrow=block;endFill=0;" edge="1" parent="1" source="eh8_WTJjOYL_qaqL26GH-41" target="eh8_WTJjOYL_qaqL26GH-24">
          <mxGeometry relative="1" as="geometry" />
        </mxCell>
        <mxCell id="eh8_WTJjOYL_qaqL26GH-41" value="Reseiver" style="swimlane;fontStyle=0;childLayout=stackLayout;horizontal=1;startSize=26;fillColor=none;horizontalStack=0;resizeParent=1;resizeParentMax=0;resizeLast=0;collapsible=1;marginBottom=0;whiteSpace=wrap;html=1;" vertex="1" parent="1">
          <mxGeometry x="120" y="746" width="140" height="52" as="geometry" />
        </mxCell>
        <mxCell id="eh8_WTJjOYL_qaqL26GH-42" value="get_message()" style="text;strokeColor=none;fillColor=none;align=left;verticalAlign=top;spacingLeft=4;spacingRight=4;overflow=hidden;rotatable=0;points=[[0,0.5],[1,0.5]];portConstraint=eastwest;whiteSpace=wrap;html=1;" vertex="1" parent="eh8_WTJjOYL_qaqL26GH-41">
          <mxGeometry y="26" width="140" height="26" as="geometry" />
        </mxCell>
        <mxCell id="eh8_WTJjOYL_qaqL26GH-62" style="edgeStyle=orthogonalEdgeStyle;rounded=0;orthogonalLoop=1;jettySize=auto;html=1;exitX=0.5;exitY=0;exitDx=0;exitDy=0;" edge="1" parent="1" source="eh8_WTJjOYL_qaqL26GH-55" target="eh8_WTJjOYL_qaqL26GH-37">
          <mxGeometry relative="1" as="geometry" />
        </mxCell>
        <mxCell id="eh8_WTJjOYL_qaqL26GH-63" style="edgeStyle=orthogonalEdgeStyle;rounded=0;orthogonalLoop=1;jettySize=auto;html=1;exitX=0.5;exitY=0;exitDx=0;exitDy=0;" edge="1" parent="1" source="eh8_WTJjOYL_qaqL26GH-55" target="eh8_WTJjOYL_qaqL26GH-41">
          <mxGeometry relative="1" as="geometry" />
        </mxCell>
        <mxCell id="eh8_WTJjOYL_qaqL26GH-55" value="Subjekt1" style="swimlane;fontStyle=0;childLayout=stackLayout;horizontal=1;startSize=26;fillColor=none;horizontalStack=0;resizeParent=1;resizeParentMax=0;resizeLast=0;collapsible=1;marginBottom=0;whiteSpace=wrap;html=1;" vertex="1" parent="1">
          <mxGeometry x="120" y="930" width="140" height="78" as="geometry" />
        </mxCell>
        <mxCell id="eh8_WTJjOYL_qaqL26GH-56" value="sender" style="text;strokeColor=none;fillColor=none;align=left;verticalAlign=top;spacingLeft=4;spacingRight=4;overflow=hidden;rotatable=0;points=[[0,0.5],[1,0.5]];portConstraint=eastwest;whiteSpace=wrap;html=1;" vertex="1" parent="eh8_WTJjOYL_qaqL26GH-55">
          <mxGeometry y="26" width="140" height="26" as="geometry" />
        </mxCell>
        <mxCell id="eh8_WTJjOYL_qaqL26GH-57" value="reseiver" style="text;strokeColor=none;fillColor=none;align=left;verticalAlign=top;spacingLeft=4;spacingRight=4;overflow=hidden;rotatable=0;points=[[0,0.5],[1,0.5]];portConstraint=eastwest;whiteSpace=wrap;html=1;" vertex="1" parent="eh8_WTJjOYL_qaqL26GH-55">
          <mxGeometry y="52" width="140" height="26" as="geometry" />
        </mxCell>
        <mxCell id="eh8_WTJjOYL_qaqL26GH-64" style="edgeStyle=orthogonalEdgeStyle;rounded=0;orthogonalLoop=1;jettySize=auto;html=1;" edge="1" parent="1" source="eh8_WTJjOYL_qaqL26GH-59" target="eh8_WTJjOYL_qaqL26GH-37">
          <mxGeometry relative="1" as="geometry" />
        </mxCell>
        <mxCell id="eh8_WTJjOYL_qaqL26GH-65" style="edgeStyle=orthogonalEdgeStyle;rounded=0;orthogonalLoop=1;jettySize=auto;html=1;" edge="1" parent="1" source="eh8_WTJjOYL_qaqL26GH-59" target="eh8_WTJjOYL_qaqL26GH-41">
          <mxGeometry relative="1" as="geometry">
            <Array as="points">
              <mxPoint x="410" y="860" />
              <mxPoint x="190" y="860" />
            </Array>
          </mxGeometry>
        </mxCell>
        <mxCell id="eh8_WTJjOYL_qaqL26GH-59" value="Subjekt2" style="swimlane;fontStyle=0;childLayout=stackLayout;horizontal=1;startSize=26;fillColor=none;horizontalStack=0;resizeParent=1;resizeParentMax=0;resizeLast=0;collapsible=1;marginBottom=0;whiteSpace=wrap;html=1;" vertex="1" parent="1">
          <mxGeometry x="340" y="930" width="140" height="78" as="geometry" />
        </mxCell>
        <mxCell id="eh8_WTJjOYL_qaqL26GH-60" value="sender" style="text;strokeColor=none;fillColor=none;align=left;verticalAlign=top;spacingLeft=4;spacingRight=4;overflow=hidden;rotatable=0;points=[[0,0.5],[1,0.5]];portConstraint=eastwest;whiteSpace=wrap;html=1;" vertex="1" parent="eh8_WTJjOYL_qaqL26GH-59">
          <mxGeometry y="26" width="140" height="26" as="geometry" />
        </mxCell>
        <mxCell id="eh8_WTJjOYL_qaqL26GH-61" value="reseiver" style="text;strokeColor=none;fillColor=none;align=left;verticalAlign=top;spacingLeft=4;spacingRight=4;overflow=hidden;rotatable=0;points=[[0,0.5],[1,0.5]];portConstraint=eastwest;whiteSpace=wrap;html=1;" vertex="1" parent="eh8_WTJjOYL_qaqL26GH-59">
          <mxGeometry y="52" width="140" height="26" as="geometry" />
        </mxCell>
        <mxCell id="eh8_WTJjOYL_qaqL26GH-66" style="edgeStyle=orthogonalEdgeStyle;rounded=0;orthogonalLoop=1;jettySize=auto;html=1;entryX=0;entryY=0.5;entryDx=0;entryDy=0;" edge="1" parent="1" source="eh8_WTJjOYL_qaqL26GH-56" target="eh8_WTJjOYL_qaqL26GH-61">
          <mxGeometry relative="1" as="geometry">
            <Array as="points">
              <mxPoint x="310" y="969" />
              <mxPoint x="310" y="995" />
            </Array>
          </mxGeometry>
        </mxCell>
        <mxCell id="eh8_WTJjOYL_qaqL26GH-67" style="edgeStyle=orthogonalEdgeStyle;rounded=0;orthogonalLoop=1;jettySize=auto;html=1;exitX=0;exitY=0.5;exitDx=0;exitDy=0;entryX=1;entryY=0.5;entryDx=0;entryDy=0;" edge="1" parent="1" source="eh8_WTJjOYL_qaqL26GH-60" target="eh8_WTJjOYL_qaqL26GH-57">
          <mxGeometry relative="1" as="geometry">
            <Array as="points">
              <mxPoint x="290" y="970" />
              <mxPoint x="290" y="995" />
            </Array>
          </mxGeometry>
        </mxCell>
      </root>
    </mxGraphModel>
  </diagram>
</mxfile>
